HIERARCHY
ROOT hip
{
  OFFSET 0 0 0
  CHANNELS 6 Xposition Yposition Zposition Zrotation Yrotation Xrotation
  JOINT abdomen
  {
    OFFSET 0 20.6881 -0.73152
    CHANNELS 3 Zrotation Xrotation Yrotation
    JOINT chest
    {
      OFFSET 0 11.7043 -0.48768
      CHANNELS 3 Zrotation Xrotation Yrotation
      JOINT neck
      {
        OFFSET 0 22.1894 -2.19456
        CHANNELS 3 Zrotation Xrotation Yrotation
        JOINT head
        {
          OFFSET -0.24384 7.07133 1.2192
          CHANNELS 3 Zrotation Xrotation Yrotation
          JOINT leftEye
          {
            OFFSET 4.14528 8.04674 8.04672
            CHANNELS 3 Zrotation Xrotation Yrotation
            End Site
            {
              OFFSET 1 0 0
            }
          }
          JOINT rightEye
          {
            OFFSET -3.6576 8.04674 8.04672
            CHANNELS 3 Zrotation Xrotation Yrotation
            End Site
            {
              OFFSET 1 0 0
            }
          }
        }
      }
      JOINT rCollar
      {
        OFFSET -2.68224 19.2634 -4.8768
        CHANNELS 3 Zrotation Xrotation Yrotation
        JOINT rShldr
        {
          OFFSET -8.77824 -1.95073 1.46304
          CHANNELS 3 Zrotation Xrotation Yrotation
          JOINT rForeArm
          {
            OFFSET -28.1742 -1.7115 0.48768
            CHANNELS 3 Zrotation Xrotation Yrotation
            JOINT rHand
            {
              OFFSET -22.5879 0.773209 7.07136
              CHANNELS 3 Zrotation Xrotation Yrotation
              JOINT rThumb1
              {
                OFFSET -1.2192 -0.487915 3.41376
                CHANNELS 3 Zrotation Xrotation Yrotation
                JOINT rThumb2
                {
                  OFFSET -3.37035 -0.52449 3.41376
                  CHANNELS 3 Zrotation Xrotation Yrotation
                  End Site
                  {
                    OFFSET -1.78271 -1.18214 1.43049
                  }
                }
              }
              JOINT rIndex1
              {
                OFFSET -7.75947 0.938293 5.60832
                CHANNELS 3 Zrotation Xrotation Yrotation
                JOINT rIndex2
                {
                  OFFSET -2.54057 -0.884171 1.56538
                  CHANNELS 3 Zrotation Xrotation Yrotation
                  End Site
                  {
                    OFFSET -1.62519 -0.234802 1.16502
                  }
                }
              }
              JOINT rMid1
              {
                OFFSET -8.24714 1.18213 3.41376
                CHANNELS 3 Zrotation Xrotation Yrotation
                JOINT rMid2
                {
                  OFFSET -3.10165 -0.590103 1.0647
                  CHANNELS 3 Zrotation Xrotation Yrotation
                  End Site
                  {
                    OFFSET -2.48547 -0.328903 0.83742
                  }
                }
              }
              JOINT rRing1
              {
                OFFSET -8.82822 0.546677 1.51678
                CHANNELS 3 Zrotation Xrotation Yrotation
                JOINT rRing2
                {
                  OFFSET -2.60934 -0.819778 -0.0198488
                  CHANNELS 3 Zrotation Xrotation Yrotation
                  End Site
                  {
                    OFFSET -2.33842 -0.294052 0.168128
                  }
                }
              }
              JOINT rPinky1
              {
                OFFSET -8.27202 -0.0477905 -0.4584
                CHANNELS 3 Zrotation Xrotation Yrotation
                JOINT rPinky2
                {
                  OFFSET -1.82734 -0.647385 -0.700984
                  CHANNELS 3 Zrotation Xrotation Yrotation
                  End Site
                  {
                    OFFSET -1.69225 -0.51767 -0.607171
                  }
                }
              }
            }
          }
        }
      }
      JOINT lCollar
      {
        OFFSET 2.68224 19.2634 -4.8768
        CHANNELS 3 Zrotation Xrotation Yrotation
        JOINT lShldr
        {
          OFFSET 8.77824 -1.95073 1.46304
          CHANNELS 3 Zrotation Xrotation Yrotation
          JOINT lForeArm
          {
            OFFSET 28.1742 -1.7115 0.48768
            CHANNELS 3 Zrotation Xrotation Yrotation
            JOINT lHand
            {
              OFFSET 22.5879 0.773209 7.07136
              CHANNELS 3 Zrotation Xrotation Yrotation
              JOINT lThumb1
              {
                OFFSET 1.2192 -0.487915 3.41376
                CHANNELS 3 Zrotation Xrotation Yrotation
                JOINT lThumb2
                {
                  OFFSET 3.37035 -0.52449 3.41376
                  CHANNELS 3 Zrotation Xrotation Yrotation
                  End Site
                  {
                    OFFSET 1.78271 -1.18214 1.43049
                  }
                }
              }
              JOINT lIndex1
              {
                OFFSET 7.75947 0.938293 5.60832
                CHANNELS 3 Zrotation Xrotation Yrotation
                JOINT lIndex2
                {
                  OFFSET 2.54057 -0.884171 1.56538
                  CHANNELS 3 Zrotation Xrotation Yrotation
                  End Site
                  {
                    OFFSET 1.62519 -0.234802 1.16502
                  }
                }
              }
              JOINT lMid1
              {
                OFFSET 8.24714 1.18213 3.41376
                CHANNELS 3 Zrotation Xrotation Yrotation
                JOINT lMid2
                {
                  OFFSET 3.10165 -0.590103 1.0647
                  CHANNELS 3 Zrotation Xrotation Yrotation
                  End Site
                  {
                    OFFSET 2.48547 -0.328903 0.83742
                  }
                }
              }
              JOINT lRing1
              {
                OFFSET 8.82822 0.546677 1.51678
                CHANNELS 3 Zrotation Xrotation Yrotation
                JOINT lRing2
                {
                  OFFSET 2.60934 -0.819778 -0.0198488
                  CHANNELS 3 Zrotation Xrotation Yrotation
                  End Site
                  {
                    OFFSET 2.33842 -0.294052 0.168128
                  }
                }
              }
              JOINT lPinky1
              {
                OFFSET 8.27202 -0.0477905 -0.4584
                CHANNELS 3 Zrotation Xrotation Yrotation
                JOINT lPinky2
                {
                  OFFSET 1.82734 -0.647385 -0.700984
                  CHANNELS 3 Zrotation Xrotation Yrotation
                  End Site
                  {
                    OFFSET 1.69225 -0.51767 -0.607171
                  }
                }
              }
            }
          }
        }
      }
    }
  }
  JOINT rButtock
  {
    OFFSET -8.77824 4.35084 1.2192
    CHANNELS 3 Zrotation Xrotation Yrotation
    JOINT rThigh
    {
      OFFSET 0 -1.70687 -2.19456
      CHANNELS 3 Zrotation Xrotation Yrotation
      JOINT rShin
      {
        OFFSET 0 -36.8199 0.73152
        CHANNELS 3 Zrotation Xrotation Yrotation
        JOINT rFoot
        {
          OFFSET 0.73152 -45.1104 -5.12064
          CHANNELS 3 Zrotation Xrotation Yrotation
          End Site
          {
            OFFSET -1.1221 -3.69964 12.103
          }
        }
      }
    }
  }
  JOINT lButtock
  {
    OFFSET 8.77824 4.35084 1.2192
    CHANNELS 3 Zrotation Xrotation Yrotation
    JOINT lThigh
    {
      OFFSET 0 -1.70687 -2.19456
      CHANNELS 3 Zrotation Xrotation Yrotation
      JOINT lShin
      {
        OFFSET 0 -36.8199 0.73152
        CHANNELS 3 Zrotation Xrotation Yrotation
        JOINT lFoot
        {
          OFFSET -0.73152 -45.1104 -5.12064
          CHANNELS 3 Zrotation Xrotation Yrotation
          End Site
          {
            OFFSET 1.1221 -3.69964 12.103
          }
        }
      }
    }
  }
}
MOTION
Frames:	4
Frame Time:	0.03333
0.5846099783265545 54.324298884479106 2.893000047492478 -8.181999206542969 -4.665600299835205 5.685699939727783 3.636399984359741 20.189001083374023 4.552800178527832 1.942770004272461 -14.072700500488281 1.6776399612426758 -5.463210105895996 10.077400207519531 -0.5860480666160583 6.324640274047852 -25.413000106811523 0.8357475996017456 -0.0 0.0 -0.0 -0.0 0.0 -0.0 -8.691669346055919e-14 -1.1807899493246343e-13 4.996949916021877e-14 -11.20470142364502 27.873104095458984 81.37940216064453 -23.321195602416992 -17.921003341674805 47.834999084472656 -0.11696799844503403 10.438400268554688 1.4799998998641968 2.8506699778496625e-10 7.925099465566632e-10 8.123100109225234e-11 4.931179908851391e-10 1.373979929830682e-09 1.370100005670949e-10 2.8508798100013166e-10 7.925019529508859e-10 8.120940031552948e-11 7.730909824371338 5.474879741668701 0.4173140823841095 2.850759905914657e-10 7.925189393631626e-10 8.122980066360697e-11 2.9055399894714355 0.9651829600334167 0.10290199518203735 2.850809865950765e-10 7.925189393631626e-10 8.123019618055949e-11 10.27859878540039 0.73180091381073 0.025912316516041756 2.850630009820776e-10 7.92508947355941e-10 8.123769712486961e-11 2.221669912338257 -0.733487069606781 -0.208919957280159 -8.70163045351563e-14 -1.1807799204545388e-13 4.968680022000675e-14 9.54861068725586 14.30150032043457 -104.94000244140625 22.950998306274414 -50.62570571899414 -106.447998046875 0.08193088322877884 6.120890140533447 -0.8626779913902283 1.194560006467782e-10 7.723540140780472e-10 3.310330065620093e-10 2.069329985143753e-10 1.334169996702883e-09 5.667579738855011e-10 1.1945799904822252e-10 7.723509609647294e-10 3.3104499697067524e-10 -7.730909824371338 5.474879741668701 -0.4173140823841095 1.1945500144605603e-10 7.723509609647294e-10 3.31034977207878e-10 -2.9055399894714355 0.9651829600334167 -0.10290199518203735 1.1944799316321308e-10 7.723499617640073e-10 3.310360041641758e-10 -10.27859878540039 0.73180091381073 -0.025912316516041756 1.194639942525555e-10 7.723529593661738e-10 3.3103400576273145e-10 -2.221669912338257 -0.733487069606781 0.208919957280159 -2.0321699480147914e-16 0.0 -3.8825099822884138e-19 -0.9425820112228394 -39.40010452270508 -10.482599258422852 -2.517129898071289 74.53431701660156 3.9534595012664795 -11.587301254272461 -26.028301239013672 -22.307903289794922 2.0321699480147914e-16 0.0 3.8825099822884138e-19 25.392000198364258 -68.01962280273438 33.26210403442383 170.07901000976562 82.50434875488281 -169.79698181152344 2.879309892654419 -6.8258490562438965 8.845590591430664
1.2664499940049148 54.37560043533507 5.795000149876918 -8.132000923156738 -10.113698959350586 5.518199443817139 3.183490037918091 19.881999969482422 6.633349418640137 1.2808600664138794 -13.965999603271484 2.13927960395813 -4.550529479980469 9.863160133361816 0.304906964302063 5.1939897537231445 -24.194902420043945 2.2198901176452637 -0.0 0.0 -0.0 -0.0 0.0 -0.0 4.408369844974324e-15 -1.669799959110388e-13 1.7418499368565543e-13 -15.576298713684082 30.615699768066406 84.20459747314453 -25.29759979248047 -21.749900817871094 54.024898529052734 -0.28518903255462646 15.026398658752441 2.1621196269989014 -4.2143699641172816e-10 -4.4515094388408727e-10 6.5641198032651e-10 -7.206739649490146e-10 -7.552509728725454e-10 1.1369599706156919e-09 -4.2141298783882064e-10 -4.4513098762521963e-10 6.563959931149554e-10 7.730909824371338 5.474879741668701 0.4173140823841095 -4.214189830431536e-10 -4.451339852273861e-10 6.564089272131923e-10 2.9055399894714355 0.9651829600334167 0.10290199518203735 -4.2141598544098713e-10 -4.451349844281083e-10 6.564159771293987e-10 10.27859878540039 0.73180091381073 0.025912316516041756 -4.2143999401389465e-10 -4.451529977966828e-10 6.564249699358982e-10 2.221669912338257 -0.733487069606781 -0.208919957280159 4.338439651881956e-15 -1.6697899302402924e-13 1.7403598364957445e-13 6.00901985168457 19.98560333251953 -97.0928955078125 22.788698196411133 -50.818702697753906 -106.9159927368164 0.020103299990296364 4.0443902015686035 -0.5693569183349609 5.874409847450579e-10 1.320619946731938e-09 3.6736699793316063e-10 1.0141699702259643e-09 2.280819977329429e-09 6.309249789282489e-10 5.874419839457801e-10 1.320619946731938e-09 3.6737998754254875e-10 -7.730909824371338 5.474879741668701 -0.4173140823841095 5.874409847450579e-10 1.320619946731938e-09 3.673759907396601e-10 -2.9055399894714355 0.9651829600334167 -0.10290199518203735 5.874359332302959e-10 1.320619946731938e-09 3.6737399233821577e-10 -10.27859878540039 0.73180091381073 -0.025912316516041756 5.874439268360732e-10 1.320619946731938e-09 3.673699955353271e-10 -2.221669912338257 -0.733487069606781 0.208919957280159 -2.0321699480147914e-16 0.0 -3.8825099822884138e-19 -0.7351110577583313 -36.85860061645508 -7.9545512199401855 -2.3526699542999268 73.86402130126953 3.8400299549102783 -11.20259952545166 -27.388399124145508 -21.57969856262207 2.0321699480147914e-16 0.0 3.8825099822884138e-19 35.484798431396484 -69.35169982910156 41.22279357910156 131.8000030517578 88.44680786132812 -131.56500244140625 2.356990098953247 -4.987060546875 8.73307991027832
1.9548999786134078 54.56849863787457 8.663000210903268 -7.776299953460693 -15.60010051727295 5.540999412536621 2.203470230102539 19.10700225830078 8.140719413757324 1.0475398302078247 -13.635700225830078 2.460279703140259 -3.7214200496673584 9.547660827636719 1.5124099254608154 4.000229358673096 -22.878707885742188 4.24778938293457 -0.0 0.0 -0.0 -0.0 0.0 -0.0 2.6246599972622534e-14 -1.5087799445142464e-13 5.269409583154305e-13 -18.48619842529297 34.79790115356445 85.84930419921875 -27.290998458862305 -27.332401275634766 62.072994232177734 -0.47356197237968445 18.48870277404785 2.7008397579193115 -2.2317998560339447e-09 -4.447429979848039e-09 3.0271998241460096e-09 -3.815030069631575e-09 -7.625919451470509e-09 5.25102983317538e-09 -2.231789864026723e-09 -4.447420209885422e-09 3.027190054183393e-09 7.730909824371338 5.474879741668701 0.4173140823841095 -2.231789864026723e-09 -4.447420209885422e-09 3.0271998241460096e-09 2.9055399894714355 0.9651829600334167 0.10290199518203735 -2.231789864026723e-09 -4.447420209885422e-09 3.0271998241460096e-09 10.27859878540039 0.73180091381073 0.025912316516041756 -2.2318098480411663e-09 -4.447429979848039e-09 3.027210038197836e-09 2.221669912338257 -0.733487069606781 -0.208919957280159 2.6196997723231322e-14 -1.5087700511694224e-13 5.267359898947221e-13 1.3403698205947876 28.247798919677734 -87.70870208740234 22.50469970703125 -50.80740737915039 -107.70499420166016 -0.062227293848991394 -5.274010181427002 0.7358810901641846 2.545199828674072e-09 2.3133399640329344e-09 1.8638099952283937e-09 4.377759932339131e-09 4.0078802499010635e-09 3.2489400059176887e-09 2.545199828674072e-09 2.3133399640329344e-09 1.8638197651910104e-09 -7.730909824371338 5.474879741668701 -0.4173140823841095 2.545199828674072e-09 2.3133399640329344e-09 1.8638197651910104e-09 -2.9055399894714355 0.9651829600334167 -0.10290199518203735 2.545199828674072e-09 2.3133399640329344e-09 1.8638197651910104e-09 -10.27859878540039 0.73180091381073 -0.025912316516041756 2.545199828674072e-09 2.3133399640329344e-09 1.8638099952283937e-09 -2.221669912338257 -0.733487069606781 0.208919957280159 -2.0321699480147914e-16 0.0 -3.8825099822884138e-19 -1.7428901195526123 -34.74930191040039 -5.958680629730225 -2.147249460220337 72.9569091796875 3.7239692211151123 -10.846698760986328 -28.0531005859375 -21.39680290222168 2.0321699480147914e-16 0.0 3.8825099822884138e-19 43.74370193481445 -68.5111083984375 46.800106048583984 9.091178894042969 83.52700805664062 -8.849299430847168 1.421489953994751 -1.776090145111084 7.865949630737305
2.531950004745816 54.9288013618765 11.448000240022447 -7.398399829864502 -20.790199279785156 5.618899822235107 0.9999729990959167 18.143600463867188 9.307418823242188 0.8871740102767944 -13.08520221710205 2.684189796447754 -2.919980049133301 9.262638092041016 2.758089780807495 3.006769895553589 -21.809598922729492 6.404840469360352 -0.0 0.0 -0.0 -0.0 0.0 -0.0 3.265269660017965e-14 -1.20861992831435e-13 8.525869355131832e-13 -18.894296646118164 41.09300994873047 85.70589447021484 -28.245498657226562 -32.3640022277832 71.04070281982422 -0.4322049617767334 18.361797332763672 2.673689842224121 -3.251699798312302e-09 -7.298689652657231e-09 4.9878199348540875e-09 -5.553539406122354e-09 -1.2522700210126914e-08 8.651589666897053e-09 -3.251699798312302e-09 -7.2986998667090575e-09 4.987809720802261e-09 7.730909824371338 5.474879741668701 0.4173140823841095 -3.251699798312302e-09 -7.298689652657231e-09 4.9878199348540875e-09 2.9055399894714355 0.9651829600334167 0.10290199518203735 -3.251699798312302e-09 -7.298689652657231e-09 4.9878199348540875e-09 10.27859878540039 0.73180091381073 0.025912316516041756 -3.2517100123641285e-09 -7.298689652657231e-09 4.9878199348540875e-09 2.221669912338257 -0.733487069606781 -0.208919957280159 3.260049904183805e-14 -1.2086000060994306e-13 8.522889425460756e-13 -7.682139873504639 34.49380111694336 -72.03669738769531 23.436601638793945 -50.09010696411133 -105.02099609375 0.30930498242378235 -15.629700660705566 2.253350257873535 3.881230004054714e-09 3.0906899262106435e-09 2.9847300186958137e-09 6.672169483579182e-09 5.3561799440160485e-09 5.208900422104534e-09 3.881230004054714e-09 3.0906899262106435e-09 2.9847300186958137e-09 -7.730909824371338 5.474879741668701 -0.4173140823841095 3.881230004054714e-09 3.0906899262106435e-09 2.9847300186958137e-09 -2.9055399894714355 0.9651829600334167 -0.10290199518203735 3.881220234092098e-09 3.0906899262106435e-09 2.9847300186958137e-09 -10.27859878540039 0.73180091381073 -0.025912316516041756 3.881230004054714e-09 3.0906899262106435e-09 2.984719804643987e-09 -2.221669912338257 -0.733487069606781 0.208919957280159 -2.0321699480147914e-16 0.0 -3.8825099822884138e-19 -3.3141303062438965 -32.78319549560547 -4.297630310058594 -1.913349986076355 71.74581909179688 3.5612001419067383 -10.532198905944824 -28.23070526123047 -21.49109649658203 2.0321699480147914e-16 0.0 3.8825099822884138e-19 48.56410217285156 -66.19479370117188 48.37770462036133 3.4761898517608643 75.42381286621094 -3.2093300819396973 0.2938289940357208 2.998030185699463 7.063629627227783
